<svg width="173" height="176" viewBox="0 0 173 176" fill="none" xmlns="http://www.w3.org/2000/svg">
<rect width="8" height="8" rx="4" fill="#C4C4C4"/>
<rect x="28" width="8" height="8" rx="4" fill="#C4C4C4"/>
<rect x="55" width="8" height="8" rx="4" fill="#C4C4C4"/>
<rect x="83" width="8" height="8" rx="4" fill="#C4C4C4"/>
<rect x="110" width="8" height="8" rx="4" fill="#C4C4C4"/>
<rect x="138" width="8" height="8" rx="4" fill="#C4C4C4"/>
<rect x="165" width="8" height="8" rx="4" fill="#C4C4C4"/>
<rect y="24" width="8" height="8" rx="4" fill="#C4C4C4"/>
<rect x="28" y="24" width="8" height="8" rx="4" fill="#C4C4C4"/>
<rect x="55" y="24" width="8" height="8" rx="4" fill="#C4C4C4"/>
<rect x="83" y="24" width="8" height="8" rx="4" fill="#C4C4C4"/>
<rect x="110" y="24" width="8" height="8" rx="4" fill="#C4C4C4"/>
<rect x="138" y="24" width="8" height="8" rx="4" fill="#C4C4C4"/>
<rect x="165" y="24" width="8" height="8" rx="4" fill="#C4C4C4"/>
<rect y="48" width="8" height="8" rx="4" fill="#C4C4C4"/>
<rect x="28" y="48" width="8" height="8" rx="4" fill="#C4C4C4"/>
<rect x="55" y="48" width="8" height="8" rx="4" fill="#C4C4C4"/>
<rect x="83" y="48" width="8" height="8" rx="4" fill="#C4C4C4"/>
<rect x="110" y="48" width="8" height="8" rx="4" fill="#C4C4C4"/>
<rect x="138" y="48" width="8" height="8" rx="4" fill="#C4C4C4"/>
<rect x="165" y="48" width="8" height="8" rx="4" fill="#C4C4C4"/>
<rect y="72" width="8" height="8" rx="4" fill="#C4C4C4"/>
<rect x="28" y="72" width="8" height="8" rx="4" fill="#C4C4C4"/>
<rect x="55" y="72" width="8" height="8" rx="4" fill="#C4C4C4"/>
<rect x="83" y="72" width="8" height="8" rx="4" fill="#C4C4C4"/>
<rect x="110" y="72" width="8" height="8" rx="4" fill="#C4C4C4"/>
<rect x="138" y="72" width="8" height="8" rx="4" fill="#C4C4C4"/>
<rect x="165" y="72" width="8" height="8" rx="4" fill="#C4C4C4"/>
<rect y="96" width="8" height="8" rx="4" fill="#C4C4C4"/>
<rect x="28" y="96" width="8" height="8" rx="4" fill="#C4C4C4"/>
<rect x="55" y="96" width="8" height="8" rx="4" fill="#C4C4C4"/>
<rect x="83" y="96" width="8" height="8" rx="4" fill="#C4C4C4"/>
<rect x="110" y="96" width="8" height="8" rx="4" fill="#C4C4C4"/>
<rect x="138" y="96" width="8" height="8" rx="4" fill="#C4C4C4"/>
<rect x="165" y="96" width="8" height="8" rx="4" fill="#C4C4C4"/>
<rect y="120" width="8" height="8" rx="4" fill="#C4C4C4"/>
<rect x="28" y="120" width="8" height="8" rx="4" fill="#C4C4C4"/>
<rect x="55" y="120" width="8" height="8" rx="4" fill="#C4C4C4"/>
<rect x="83" y="120" width="8" height="8" rx="4" fill="#C4C4C4"/>
<rect x="110" y="120" width="8" height="8" rx="4" fill="#C4C4C4"/>
<rect x="138" y="120" width="8" height="8" rx="4" fill="#C4C4C4"/>
<rect x="165" y="120" width="8" height="8" rx="4" fill="#C4C4C4"/>
<rect y="144" width="8" height="8" rx="4" fill="#C4C4C4"/>
<rect x="28" y="144" width="8" height="8" rx="4" fill="#C4C4C4"/>
<rect x="55" y="144" width="8" height="8" rx="4" fill="#C4C4C4"/>
<rect x="83" y="144" width="8" height="8" rx="4" fill="#C4C4C4"/>
<rect x="110" y="144" width="8" height="8" rx="4" fill="#C4C4C4"/>
<rect x="138" y="144" width="8" height="8" rx="4" fill="#C4C4C4"/>
<rect x="165" y="144" width="8" height="8" rx="4" fill="#C4C4C4"/>
<rect y="168" width="8" height="8" rx="4" fill="#C4C4C4"/>
<rect x="28" y="168" width="8" height="8" rx="4" fill="#C4C4C4"/>
<rect x="55" y="168" width="8" height="8" rx="4" fill="#C4C4C4"/>
<rect x="83" y="168" width="8" height="8" rx="4" fill="#C4C4C4"/>
<rect x="110" y="168" width="8" height="8" rx="4" fill="#C4C4C4"/>
<rect x="138" y="168" width="8" height="8" rx="4" fill="#C4C4C4"/>
<rect x="165" y="168" width="8" height="8" rx="4" fill="#C4C4C4"/>
</svg>
