<svg width="90" height="80" viewBox="0 0 90 80" fill="none" xmlns="http://www.w3.org/2000/svg">
<rect width="8" height="8" rx="4" fill="#C4C4C4"/>
<rect x="27" width="8" height="8" rx="4" fill="#C4C4C4"/>
<rect x="55" width="8" height="8" rx="4" fill="#C4C4C4"/>
<rect x="82" width="8" height="8" rx="4" fill="#C4C4C4"/>
<rect y="24" width="8" height="8" rx="4" fill="#C4C4C4"/>
<rect x="27" y="24" width="8" height="8" rx="4" fill="#C4C4C4"/>
<rect x="55" y="24" width="8" height="8" rx="4" fill="#C4C4C4"/>
<rect x="82" y="24" width="8" height="8" rx="4" fill="#C4C4C4"/>
<rect y="48" width="8" height="8" rx="4" fill="#C4C4C4"/>
<rect x="27" y="48" width="8" height="8" rx="4" fill="#C4C4C4"/>
<rect x="55" y="48" width="8" height="8" rx="4" fill="#C4C4C4"/>
<rect x="82" y="48" width="8" height="8" rx="4" fill="#C4C4C4"/>
<rect y="72" width="8" height="8" rx="4" fill="#C4C4C4"/>
<rect x="27" y="72" width="8" height="8" rx="4" fill="#C4C4C4"/>
<rect x="55" y="72" width="8" height="8" rx="4" fill="#C4C4C4"/>
<rect x="82" y="72" width="8" height="8" rx="4" fill="#C4C4C4"/>
</svg>
